# xmcd
#
# Track frame offsets: 
#        150
#        15368
#        30484
#        44426
#        57755
#        68443
#        79498
#        95162
#        107448
#        119348
#
# Disc length: 1721 seconds
#
# Revision: 0
# Processed by: cddbd v1.5PL3 Copyright (c) Steve Scherf et al.
# Submitted via: ExactAudioCopy v0.90b4
#
DISCID=7606b70a
DTITLE=Lorrie Morgan - Oh Boy Classics Presents Lorrie Morgan
DYEAR=1900
DGENRE=Country
TTITLE0=Love Letters
TTITLE1=Two People In Love
TTITLE2=Let It Be Yesterday
TTITLE3=Making Love For The First Time
TTITLE4=Say The Part About I Love You
TTITLE5=Tell Me I'm Only Dreaming
TTITLE6=In For Rain
TTITLE7=First Few Days Of Love
TTITLE8=I Don't Care
TTITLE9=I Love How You Love Me
EXTD=
EXTT0=
EXTT1=
EXTT2=
EXTT3=
EXTT4=
EXTT5=
EXTT6=
EXTT7=
EXTT8=
EXTT9=
PLAYORDER=
